<?xml version="1.0" encoding="utf-8"?>
<!-- Generator: Adobe Illustrator 22.0.1, SVG Export Plug-In . SVG Version: 6.00 Build 0)  -->
<svg version="1.1" id="Layer_1" xmlns="http://www.w3.org/2000/svg" xmlns:xlink="http://www.w3.org/1999/xlink" x="0px" y="0px"
	 viewBox="60 170 872.1 350.1" style="enable-background:new 0 0 992.1 992.1;" xml:space="preserve">
<style type="text/css">
	.st0{fill:#0D5FA7;}
	.st1{fill:#FFFFFF;}
</style>
<path class="st0" d="M896.8,509.3H96.4c-16.8,0-30.4-13.6-30.4-30.4V203.8c0-16.8,13.6-30.4,30.4-30.4h800.4
	c16.8,0,30.4,13.6,30.4,30.4v275.1C927.3,495.7,913.6,509.3,896.8,509.3z"/>
<g>
	<g>
		<path class="st1" d="M198.7,256.1c0.1,0,0.2,0,0.3,0c0.2-0.2,0.4-0.4,0.3-0.7c0.7-0.8,1.2-2.1,0.8-3.2c-0.2-0.5-0.7-0.5-1.2-0.4
			c-0.4,0-0.7,0.1-1-0.1v-0.3l-9-3.6c-0.4-1.9-1.3-3.6-2.2-5.3c-0.3-3.9-3.6-6.5-3.6-10.4c0.5-0.7,1.1-0.6,1.7-0.5
			c0.3,0.1,0.7,0.1,1,0c0.4-0.3,0.7-0.6,0.5-1.3c0.2-0.1,0.2-0.5,0.5-0.6c0.1-0.9-0.1-1.9,1-2.1c-0.4-0.7-0.9-1.3-1-2.2
			c0.7-1.3-0.2-3.1-0.2-4.4c-1.4-0.5-2.9-1.6-4.4-1.5c-0.7,0-1.3,0.3-2,0.8c-1.2,1.3-1.9,2.8-1.9,4.2c0,2.8,0.4,2.8,0.7,4.7
			c-0.4,0.4-0.4,1.4-1.2,1c-1,1.3-2.2,2.8-3.3,4.2c-3.5,3.2-8.4,6.2-9,11.4c0.3,4,0.4,7.8,0.3,11.8c0.1,0,0.3,0,0.4,0
			c0.3,0,0.5,0,0.7,0.1c-0.1,0.1-0.1,0.1-0.1,0.2l0,0c0,0.2,0,0.4,0,0.6h0.3c0.6,1.2,0.1,3,0.4,4.3c0.3,0.4,0.2,1.4,0.9,1.4
			c0-0.2,0-0.4,0.1-0.5l0.6,1.1c0.4,0.2,0.4-0.3,0.6-0.5c0.3,0.1,0.1,0.5,0.2,0.8c0.1,0.2,0.3,0.4,0.6,0.3l0.2-3.4
			c0.4,1,0.4,2.2,0.5,3.4h0.3c0.5-0.5,0.2-1.3,0.3-2c-0.2-2,0.1-3.7-0.8-5.4c0.3-0.2,0.4-0.5,0.3-0.9c0.2,0,0.2-0.4,0.5-0.3
			c0.6-3.6,0.3-7.7,0.4-11.2l1.2-1c1.1,5.1,0.2,10.3-0.7,15.4c0.3,0.9,0.6,2,0.3,3.1v1.9h0.2v-0.9c0.1,1.9-0.6,4.3,0.8,5.2
			c0,4.9-0.1,9.8-0.7,14.4c-2.9,7.1-7.4,14.2-6.8,22.2h3.5l0.4-0.8c3.1,0.5,6.6,1.3,9.2-0.9c-0.3-1.7-2.8-0.9-4-1.7
			c-0.6-0.3-1.3-0.6-1.7-1.2l-0.6-0.1c0.8-3.6,2.6-6.8,4.2-10.1c4.6-5.8,4.3-13.6,5.2-21c0.2-0.3,0.5-0.4,0.8-0.4c0.2,0,0.5,0,0.8,0
			c0.9,0,2,0,1.8-1c4.4,0.3,8.1,2.6,12.5,3.2c-0.1,0.5-0.4,0.8-0.5,1.3c-0.1,1.2-0.1,2.3-0.2,3.4v0.9c-0.1,5.7-0.1,8.9,1,14.4
			l3.1-0.1l0.3-0.8c2.9-0.2,6.4,0.1,9.1-1.8c-0.5-1.6-2.9-0.6-4.2-1.3c-0.7-0.4-1.8-0.7-2.1-1.6c-0.3-5.8,0.1-11.8,1.1-17.5
			c-4.4-5.9-10.6-7.1-16.1-10c0.2-0.7,0-0.5,0.4-1.1c-1.5,0-2.3-1.2-3.6-0.8c-0.3-1.4-0.4-3.2-0.1-4.7c0.4,0.3,0.9,0.5,1.2,0.9
			c2.8,1,6,1.3,8.7,2.7l1-0.7"/>
		<path class="st1" d="M153.7,366.3h33.8v-60.5h-33.8V366.3z M180.1,352.6c-0.6,1.2-1.7,2.2-3.4,3s-3.6,1.2-5.8,1.2
			c-2.4,0-4.5-0.5-6.2-1.4s-2.8-2.1-3.4-3.5c-0.5-1.4-0.8-3.4-0.8-6v-2.3h8.4v4.2c0,1.3,0.1,2.1,0.4,2.5c0.2,0.4,0.7,0.6,1.3,0.6
			s1-0.2,1.3-0.7s0.4-1.2,0.4-2.1c0-2-0.3-3.4-0.8-4c-0.6-0.6-2-1.7-4.2-3.2s-3.7-2.6-4.5-3.2c-0.7-0.7-1.3-1.6-1.8-2.8
			c-0.5-1.2-0.7-2.7-0.7-4.6c0-2.7,0.3-4.6,1-5.8c0.7-1.2,1.8-2.2,3.3-2.9c1.5-0.7,3.3-1,5.5-1c2.3,0,4.3,0.4,6,1.1
			c1.7,0.8,2.7,1.7,3.3,2.9c0.5,1.2,0.8,3.1,0.8,5.9v1.4h-8.4v-2.6c0-1.2-0.1-2-0.3-2.3s-0.6-0.5-1.1-0.5s-1,0.2-1.2,0.7
			c-0.3,0.4-0.4,1.1-0.4,2c0,1.2,0.2,2,0.5,2.6s1.2,1.3,2.6,2.1c4,2.4,6.6,4.3,7.6,5.9c1,1.5,1.6,4,1.6,7.4
			C181,349.6,180.7,351.5,180.1,352.6"/>
		<path class="st1" d="M191.9,366.3h33.8v-74.1h-33.8V366.3z M219,327.8h-5.6v28.9H204v-28.9h-5.6v-7.2H219V327.8z"/>
		<path class="st1" d="M230,366.3h33.8v-88.2H230V366.3z M255.3,356.8h-15.5v-36.2h14.9v7.2h-6.3v6.9h5.9v6.9h-5.9v8h6.9
			L255.3,356.8L255.3,356.8z"/>
		<path class="st1" d="M284.3,326.8v9.2c0.3,0,0.5,0,0.7,0c0.9,0,1.5-0.2,1.8-0.6s0.5-1.3,0.5-2.7v-3c0-1.2-0.2-2-0.6-2.4
			S285.5,326.8,284.3,326.8"/>
		<path class="st1" d="M268.1,366.3h33.8V264.5h-33.8V366.3z M295.1,333.8c0,2.3-0.2,4-0.7,5.1s-1.4,1.9-2.6,2.4
			c-1.3,0.6-2.9,0.9-5,0.9h-2.5v14.6h-8.6v-36.2h8.7c2.6,0,4.5,0.2,5.9,0.6s2.4,1,3.1,1.7c0.7,0.8,1.2,1.7,1.4,2.8
			c0.2,1.1,0.4,2.8,0.4,5L295.1,333.8L295.1,333.8z"/>
		<g>
			<path class="st1" d="M177.6,376.1v8.4h-6.5v33.6h-10.9v-33.6h-6.5v-8.4H177.6z"/>
			<path class="st1" d="M180.1,376.1h7.7c5.2,0,8.6,0.2,10.5,0.6c1.8,0.4,3.3,1.4,4.5,3c1.1,1.6,1.7,4.2,1.7,7.8
				c0,3.3-0.4,5.5-1.2,6.6s-2.4,1.8-4.8,2c2.2,0.5,3.6,1.3,4.4,2.2c0.7,0.9,1.2,1.7,1.4,2.5s0.3,2.8,0.3,6.2v11.1h-10.1v-13.9
				c0-2.2-0.2-3.6-0.5-4.2c-0.4-0.5-1.3-0.8-2.8-0.8v18.9h-10.9v-42H180.1z M191,383.3v9.3c1.2,0,2.1-0.2,2.6-0.5s0.7-1.4,0.7-3.3
				v-2.3c0-1.3-0.2-2.2-0.7-2.6S192.3,383.3,191,383.3z"/>
			<path class="st1" d="M227.5,376.1l6.2,42h-11.2l-0.6-7.5H218l-0.7,7.5H206l5.6-42H227.5z M221.8,403.1
				c-0.6-4.8-1.1-10.6-1.7-17.6c-1.1,8-1.8,13.9-2.1,17.6H221.8z"/>
			<path class="st1" d="M260.4,376.1l-5.6,42h-16.6l-6.3-42h11.5c1.3,11.6,2.3,21.3,2.9,29.3c0.6-8.1,1.2-15.3,1.8-21.5l0.8-7.8
				H260.4z"/>
			<path class="st1" d="M262.3,376.1h18.2v8.4h-7.3v8h6.8v8h-6.8v9.2h8v8.4h-18.9L262.3,376.1L262.3,376.1z"/>
			<path class="st1" d="M295.2,376.1v33.6h6.6v8.4h-17.6v-42H295.2z"/>
		</g>
	</g>
	<g>
		<g>
			<path class="st1" d="M411.7,264.4v40.5c0,4.6-0.1,7.8-0.4,9.7c-0.3,1.9-1.2,3.8-2.7,5.7c-1.5,2-3.4,3.4-5.8,4.4s-5.2,1.5-8.5,1.5
				c-3.6,0-6.8-0.6-9.6-1.8c-2.8-1.2-4.8-2.8-6.2-4.7c-1.4-1.9-2.2-3.9-2.4-6.1c-0.2-2.1-0.4-6.6-0.4-13.4v-35.8h15.7v45.4
				c0,2.6,0.1,4.3,0.4,5.1c0.3,0.7,0.9,1.1,1.7,1.1c1,0,1.6-0.4,1.9-1.2c0.3-0.8,0.4-2.7,0.4-5.7v-44.6h15.9V264.4z"/>
			<path class="st1" d="M452.9,264.4V325h-13.8l-8.2-27.5V325h-13.2v-60.5h13.2l8.8,27.3v-27.3h13.2V264.4z"/>
			<path class="st1" d="M459.2,264.4H471c7.6,0,12.7,0.3,15.4,1c2.7,0.7,4.7,1.8,6.1,3.4s2.3,3.4,2.6,5.3c0.3,2,0.5,5.8,0.5,11.5
				V307c0,5.4-0.3,9.1-0.8,10.9s-1.4,3.3-2.7,4.3c-1.3,1-2.8,1.8-4.7,2.2c-1.9,0.4-4.7,0.6-8.4,0.6h-19.9v-60.6H459.2z M475,274.8
				v39.8c2.3,0,3.7-0.5,4.2-1.4s0.8-3.4,0.8-7.4v-23.5c0-2.7-0.1-4.5-0.3-5.3c-0.2-0.8-0.6-1.3-1.2-1.7
				C477.9,275,476.7,274.8,475,274.8z"/>
			<path class="st1" d="M501.6,264.4h26.2v12.1h-10.5V288h9.8v11.5h-9.8v13.3h11.6V325h-27.3L501.6,264.4L501.6,264.4z"/>
			<path class="st1" d="M533.4,264.4h11.1c7.4,0,12.5,0.3,15.1,0.9s4.8,2,6.4,4.4c1.7,2.4,2.5,6.1,2.5,11.3c0,4.7-0.6,7.9-1.8,9.5
				s-3.5,2.6-6.9,2.9c3.1,0.8,5.2,1.8,6.3,3.1c1.1,1.3,1.7,2.5,2,3.6s0.4,4.1,0.4,9v16h-14.6V305c0-3.2-0.3-5.2-0.8-6
				s-1.9-1.2-4-1.2V325h-15.7V264.4z M549.1,274.8v13.5c1.8,0,3-0.2,3.7-0.7s1.1-2.1,1.1-4.7v-3.3c0-1.9-0.3-3.2-1-3.8
				C552.2,275.1,550.9,274.8,549.1,274.8z"/>
			<path class="st1" d="M412.7,382.7H397v-10.5c0-3.1-0.2-5-0.5-5.7c-0.3-0.8-1.1-1.1-2.2-1.1c-1.3,0-2.1,0.5-2.5,1.4
				c-0.3,0.9-0.5,2.9-0.5,6v28.1c0,2.9,0.2,4.9,0.5,5.8s1.1,1.3,2.4,1.3c1.2,0,1.9-0.4,2.3-1.3s0.5-3,0.5-6.3v-7.6h15.7v2.4
				c0,6.3-0.4,10.7-1.3,13.3c-0.9,2.6-2.8,4.9-5.9,6.9s-6.8,3-11.2,3c-4.6,0-8.4-0.8-11.4-2.5s-5-4-5.9-6.9c-1-3-1.5-7.4-1.5-13.3
				V378c0-4.4,0.1-7.6,0.4-9.8c0.3-2.2,1.2-4.3,2.7-6.3s3.5-3.6,6.2-4.8c2.6-1.2,5.7-1.7,9.1-1.7c4.6,0,8.5,0.9,11.5,2.7
				c3,1.8,5,4,5.9,6.7s1.4,6.8,1.4,12.5V382.7z"/>
			<path class="st1" d="M454.3,391.8c0,6.1-0.1,10.4-0.4,12.9s-1.2,4.8-2.7,6.9s-3.5,3.7-6.1,4.8c-2.6,1.1-5.6,1.7-9,1.7
				c-3.2,0-6.2-0.5-8.7-1.6c-2.6-1.1-4.7-2.6-6.2-4.8c-1.6-2.1-2.5-4.4-2.8-6.9s-0.4-6.9-0.4-13.1v-10.4c0-6.1,0.1-10.4,0.4-12.9
				s1.2-4.8,2.7-6.9s3.5-3.7,6.1-4.8c2.6-1.1,5.6-1.7,9-1.7c3.2,0,6.2,0.5,8.7,1.6c2.6,1.1,4.7,2.6,6.2,4.8c1.6,2.1,2.5,4.4,2.8,6.9
				s0.4,6.9,0.4,13.1V391.8z M438.5,371.9c0-2.8-0.2-4.6-0.5-5.4s-1-1.2-1.9-1.2c-0.8,0-1.5,0.3-1.9,1c-0.4,0.6-0.7,2.5-0.7,5.6
				v28.3c0,3.5,0.1,5.7,0.4,6.5s1,1.2,2,1.2c1.1,0,1.8-0.5,2.1-1.4c0.3-0.9,0.4-3.2,0.4-6.8v-27.8H438.5z"/>
			<path class="st1" d="M495.3,356.3v60.5h-13.8l-8.2-27.5v27.5h-13.2v-60.5h13.2l8.8,27.3v-27.3H495.3z"/>
			<path class="st1" d="M535,374.6h-14.6v-4.5c0-2.1-0.2-3.4-0.6-4c-0.4-0.6-1-0.9-1.9-0.9s-1.7,0.4-2.1,1.2
				c-0.5,0.8-0.7,1.9-0.7,3.5c0,2,0.3,3.5,0.8,4.6c0.5,1,2,2.3,4.4,3.7c7,4.2,11.4,7.6,13.2,10.2c1.8,2.7,2.7,7,2.7,12.9
				c0,4.3-0.5,7.5-1.5,9.5s-3,3.8-5.9,5.1c-2.9,1.4-6.3,2.1-10.1,2.1c-4.2,0-7.8-0.8-10.8-2.4s-4.9-3.6-5.9-6.1
				c-0.9-2.5-1.4-6-1.4-10.5v-4h14.6v7.4c0,2.3,0.2,3.7,0.6,4.4c0.4,0.6,1.1,1,2.2,1c1,0,1.8-0.4,2.3-1.2c0.5-0.8,0.8-2,0.8-3.7
				c0-3.6-0.5-5.9-1.5-7s-3.5-2.9-7.4-5.5c-3.9-2.6-6.5-4.5-7.8-5.6c-1.3-1.2-2.3-2.8-3.2-4.9c-0.8-2.1-1.3-4.7-1.3-7.9
				c0-4.6,0.6-8,1.8-10.2c1.2-2.1,3.1-3.8,5.7-5s5.8-1.8,9.6-1.8c4.1,0,7.6,0.7,10.4,2c2.9,1.3,4.8,3,5.7,5s1.4,5.4,1.4,10.2v2.4
				H535z"/>
			<path class="st1" d="M572.9,356.3v12.1h-9.3v48.4h-15.7v-48.4h-9.3v-12.1H572.9z"/>
			<path class="st1" d="M576.5,356.3h11.1c7.4,0,12.5,0.3,15.1,0.9s4.8,2,6.4,4.4c1.7,2.4,2.5,6.1,2.5,11.3c0,4.7-0.6,7.9-1.8,9.5
				s-3.5,2.6-6.9,2.9c3.1,0.8,5.2,1.8,6.3,3.1c1.1,1.3,1.7,2.5,2,3.6s0.4,4.1,0.4,9v16H597v-20.1c0-3.2-0.3-5.2-0.8-6
				s-1.9-1.2-4-1.2V417h-15.7V356.3z M592.2,366.7v13.5c1.8,0,3-0.2,3.7-0.7s1.1-2.1,1.1-4.7v-3.3c0-1.9-0.3-3.2-1-3.8
				C595.3,367,594,366.7,592.2,366.7z"/>
			<path class="st1" d="M653.5,356.3v40.5c0,4.6-0.1,7.8-0.4,9.7c-0.3,1.9-1.2,3.8-2.7,5.7c-1.5,2-3.4,3.4-5.8,4.4
				c-2.4,1-5.2,1.5-8.5,1.5c-3.6,0-6.8-0.6-9.6-1.8c-2.8-1.2-4.8-2.8-6.2-4.7c-1.4-1.9-2.2-3.9-2.4-6.1c-0.2-2.1-0.4-6.6-0.4-13.4
				v-35.8h15.7v45.4c0,2.6,0.1,4.3,0.4,5.1c0.3,0.7,0.9,1.1,1.7,1.1c1,0,1.6-0.4,1.9-1.2c0.3-0.8,0.4-2.7,0.4-5.7v-44.6h15.9V356.3z
				"/>
			<path class="st1" d="M696.4,382.7h-15.7v-10.5c0-3.1-0.2-5-0.5-5.7c-0.3-0.8-1.1-1.1-2.2-1.1c-1.3,0-2.1,0.5-2.5,1.4
				c-0.3,0.9-0.5,2.9-0.5,6v28.1c0,2.9,0.2,4.9,0.5,5.8s1.1,1.3,2.4,1.3c1.2,0,1.9-0.4,2.3-1.3c0.4-0.9,0.5-3,0.5-6.3v-7.6h15.7v2.4
				c0,6.3-0.4,10.7-1.3,13.3c-0.9,2.6-2.8,4.9-5.9,6.9s-6.8,3-11.2,3c-4.6,0-8.4-0.8-11.4-2.5s-5-4-5.9-6.9c-1-3-1.5-7.4-1.5-13.3
				V378c0-4.4,0.1-7.6,0.4-9.8c0.3-2.2,1.2-4.3,2.7-6.3s3.5-3.6,6.2-4.8c2.6-1.2,5.7-1.7,9.1-1.7c4.6,0,8.5,0.9,11.5,2.7
				c3,1.8,5,4,5.9,6.7s1.4,6.8,1.4,12.5V382.7z"/>
			<path class="st1" d="M733.7,356.3v12.1h-9.3v48.4h-15.7v-48.4h-9.3v-12.1H733.7z"/>
			<path class="st1" d="M753,356.3v60.5h-15.7v-60.5H753z"/>
			<path class="st1" d="M795.3,391.8c0,6.1-0.1,10.4-0.4,12.9c-0.3,2.5-1.2,4.8-2.7,6.9s-3.5,3.7-6.1,4.8c-2.6,1.1-5.6,1.7-9,1.7
				c-3.2,0-6.2-0.5-8.7-1.6c-2.6-1.1-4.7-2.6-6.2-4.8c-1.6-2.1-2.5-4.4-2.8-6.9s-0.4-6.9-0.4-13.1v-10.4c0-6.1,0.1-10.4,0.4-12.9
				c0.3-2.5,1.2-4.8,2.7-6.9s3.5-3.7,6.1-4.8c2.6-1.1,5.6-1.7,9-1.7c3.2,0,6.2,0.5,8.7,1.6c2.6,1.1,4.7,2.6,6.2,4.8
				c1.6,2.1,2.5,4.4,2.8,6.9s0.4,6.9,0.4,13.1V391.8z M779.6,371.9c0-2.8-0.2-4.6-0.5-5.4s-1-1.2-1.9-1.2c-0.8,0-1.5,0.3-1.9,1
				c-0.4,0.6-0.7,2.5-0.7,5.6v28.3c0,3.5,0.1,5.7,0.4,6.5c0.3,0.8,1,1.2,2,1.2c1.1,0,1.8-0.5,2.1-1.4s0.4-3.2,0.4-6.8v-27.8H779.6z"
				/>
			<path class="st1" d="M836.3,356.3v60.5h-13.8l-8.2-27.5v27.5h-13.2v-60.5h13.2l8.8,27.3v-27.3H836.3z"/>
		</g>
		<g>
			<rect x="334.8" y="264.6" class="st1" width="5.3" height="153.6"/>
		</g>
	</g>
</g>
</svg>
